<svg width="1199" height="1106" viewBox="0 0 1199 1106" fill="none" xmlns="http://www.w3.org/2000/svg">
<g clip-path="url(#clip0)">
<path d="M844.154 1.29869C860.72 1.29869 877.286 1.29869 893.851 1.29869C893.851 82.5166 893.851 163.734 893.851 244.952C877.286 244.952 860.72 244.952 844.154 244.952C844.154 163.734 844.154 82.5166 844.154 1.29869V1.29869ZM550.301 538.653C550.301 555.029 550.301 571.405 550.301 587.782C468.675 587.782 387.049 587.782 305.423 587.782C305.423 571.405 305.423 555.029 305.423 538.653C387.049 538.653 468.675 538.653 550.301 538.653ZM697.227 342.903C697.227 359.261 697.227 375.619 697.227 391.977C642.421 391.977 587.615 391.977 532.809 391.977C532.809 375.619 532.809 359.261 532.809 342.903C587.615 342.903 642.421 342.903 697.227 342.903ZM893.13 538.806C893.13 555.106 893.13 571.405 893.13 587.705C795.179 587.705 697.227 587.705 599.276 587.705C599.276 571.405 599.276 555.106 599.276 538.806C697.227 538.806 795.179 538.806 893.13 538.806ZM892.255 195.977C892.255 212.302 892.255 228.627 892.255 244.952C827.246 244.952 762.237 244.952 697.227 244.952C697.227 228.627 697.227 212.302 697.227 195.977C762.237 195.977 827.246 195.977 892.255 195.977V195.977ZM894.004 0C894.004 16.35 894.004 32.7 894.004 49.05C697.81 49.05 501.617 49.05 305.423 49.05C305.423 32.7 305.423 16.35 305.423 0C501.617 0 697.81 0 894.004 0ZM697.227 147.001C713.553 147.001 729.878 147.001 746.203 147.001C746.203 179.651 746.203 212.302 746.203 244.952C729.878 244.952 713.553 244.952 697.227 244.952C697.227 212.302 697.227 179.651 697.227 147.001ZM648.263 294.157C664.595 294.157 680.928 294.157 697.26 294.157C697.26 325.583 697.26 357.009 697.26 388.435C680.928 388.435 664.595 388.435 648.263 388.435C648.263 357.009 648.263 325.583 648.263 294.157ZM501.336 342.903C517.668 342.903 534.001 342.903 550.333 342.903C550.333 424.529 550.333 506.156 550.333 587.782C534.001 587.782 517.668 587.782 501.336 587.782C501.336 506.156 501.336 424.529 501.336 342.903ZM843.891 293.928C860.311 293.928 876.731 293.928 893.152 293.928C893.152 391.879 893.152 489.83 893.152 587.782C876.731 587.782 860.311 587.782 843.891 587.782C843.891 489.83 843.891 391.879 843.891 293.928V293.928ZM305.423 0.0743542C321.748 0.0743542 338.073 0.0743542 354.398 0.0743542C354.398 195.977 354.398 391.879 354.398 587.781C338.073 587.781 321.748 587.781 305.423 587.781C305.423 391.879 305.423 195.977 305.423 0.0743542Z" fill="url(#paint0_linear)"/>
</g>
<path d="M169.631 716.392V690.445H19.1963V710.27L34.3564 713.186C37.8549 714.06 38.4379 716.392 38.4379 718.433V856.623C38.4379 858.664 37.8549 860.996 34.3564 861.871L19.1963 864.786V884.611H87.7082V864.786L72.8396 861.871C69.3412 860.996 68.7581 858.664 68.7581 856.623V799.773H166.132V773.826H68.7581V716.392H169.631ZM365.411 787.82C365.411 709.396 357.54 688.405 279.698 688.405C205.647 688.405 193.694 704.439 193.694 787.82C193.694 865.369 202.44 886.652 279.99 886.652C357.248 886.652 365.411 866.244 365.411 787.82ZM334.216 787.82C334.216 850.501 332.176 860.996 279.99 860.996C228.971 860.996 224.889 851.084 224.889 787.82C224.889 721.057 230.428 713.769 279.698 713.769C333.633 713.769 334.216 726.888 334.216 787.82ZM451.119 799.773H509.136V829.801L545.578 884.611H588.435V864.786L577.064 862.162C570.651 860.705 567.152 859.83 563.654 854.582L532.167 808.227C530.71 806.187 529.543 804.729 529.543 802.397C529.543 797.732 533.042 797.149 537.124 796.566C548.202 795.4 559.572 791.61 567.152 783.155C575.315 774.117 579.397 761.581 579.397 744.963C579.397 704.731 564.237 690.445 519.34 690.445H401.558V710.27L416.718 713.186C420.216 714.06 420.799 716.392 420.799 718.433V856.623C420.799 858.664 420.216 860.996 416.718 861.871L401.558 864.786V884.611H470.069V864.786L455.201 861.871C451.702 860.996 451.119 858.664 451.119 856.623V799.773ZM547.91 745.255C547.91 754.584 547.619 762.164 542.371 767.412C537.707 771.493 528.669 774.409 509.136 774.409H451.119V716.101H509.136C528.669 716.101 537.707 718.725 542.371 723.098C547.619 728.346 547.91 736.217 547.91 745.255ZM802.682 828.927C802.682 814.35 798.892 805.312 798.892 805.312L768.28 788.403C766.531 787.528 765.656 786.654 765.656 784.904C765.656 782.864 766.531 782.28 768.28 781.406L796.268 765.954C796.268 765.954 798.6 756.916 798.6 744.672C798.6 706.772 781.691 690.445 743.208 690.445H621.636V710.27L636.796 713.186C640.294 714.06 640.877 716.392 640.877 718.433V856.623C640.877 858.664 640.294 860.996 636.796 861.871L621.636 864.786V884.611H746.706C785.773 884.611 802.682 866.827 802.682 828.927ZM767.406 744.963C767.406 769.453 755.744 774.117 732.129 774.117H671.198V716.101H733.004C756.327 716.101 767.406 720.182 767.406 744.963ZM771.196 828.927C771.196 854.582 758.951 858.955 734.462 858.955H671.198V798.898H734.462C758.951 798.898 771.196 803.271 771.196 828.927ZM994 884.611V858.664H887.005V797.732H990.502V772.368H887.005V716.392H994V690.445H837.444V710.27L852.604 713.186C856.102 714.06 856.685 716.392 856.685 718.433V856.623C856.685 858.664 856.102 860.996 852.604 861.871L837.444 864.786V884.611H994ZM1104.9 886.652C1150.96 886.652 1180.7 878.78 1180.7 826.011C1180.7 771.493 1145.13 772.951 1102.57 770.91C1075.75 769.744 1055.92 771.202 1055.92 742.34C1055.92 713.186 1083.91 714.352 1106.65 714.352C1132.01 714.352 1166.12 721.057 1166.12 721.057L1170.2 695.693C1170.2 695.693 1137.84 688.405 1101.69 688.405C1050.09 688.405 1025.89 700.649 1025.89 746.13C1025.89 798.898 1060.88 798.024 1104.61 800.939C1136.39 802.98 1150.09 800.356 1150.09 830.676C1150.09 860.413 1123.85 860.413 1101.4 860.413C1071.08 860.413 1033.47 853.125 1033.47 853.125L1029.97 878.78C1029.97 878.78 1064.38 886.652 1104.9 886.652Z" fill="#002C57"/>
<path d="M395.641 943.956V1046.87H378.759V1001.86H330.336V1046.87H313.454V943.956H330.336V988.085H378.759V943.956H395.641ZM482.578 1047.91C473.001 1047.91 464.166 1045.69 456.071 1041.25C448.074 1036.71 441.706 1030.44 436.968 1022.44C432.328 1014.35 430.008 1005.26 430.008 995.193C430.008 985.124 432.328 976.091 436.968 968.094C441.706 960.097 448.074 953.878 456.071 949.435C464.166 944.894 473.001 942.624 482.578 942.624C492.252 942.624 501.088 944.894 509.085 949.435C517.18 953.878 523.547 960.097 528.187 968.094C532.827 976.091 535.147 985.124 535.147 995.193C535.147 1005.26 532.827 1014.35 528.187 1022.44C523.547 1030.44 517.18 1036.71 509.085 1041.25C501.088 1045.69 492.252 1047.91 482.578 1047.91ZM482.578 1033.25C489.389 1033.25 495.461 1031.72 500.792 1028.66C506.123 1025.5 510.269 1021.06 513.231 1015.33C516.291 1009.51 517.821 1002.79 517.821 995.193C517.821 987.592 516.291 980.928 513.231 975.202C510.269 969.476 506.123 965.083 500.792 962.023C495.461 958.962 489.389 957.432 482.578 957.432C475.766 957.432 469.694 958.962 464.363 962.023C459.032 965.083 454.837 969.476 451.776 975.202C448.814 980.928 447.334 987.592 447.334 995.193C447.334 1002.79 448.814 1009.51 451.776 1015.33C454.837 1021.06 459.032 1025.5 464.363 1028.66C469.694 1031.72 475.766 1033.25 482.578 1033.25ZM677.927 943.956V1046.87H661.045V976.387L629.651 1046.87H617.953L586.411 976.387V1046.87H569.529V943.956H587.744L623.876 1024.66L659.86 943.956H677.927ZM734.766 957.58V987.789H770.306V1001.56H734.766V1033.1H774.749V1046.87H717.885V943.808H774.749V957.58H734.766ZM847.223 1047.91C840.313 1047.91 834.093 1046.73 828.565 1044.36C823.036 1041.89 818.692 1038.43 815.533 1033.99C812.374 1029.55 810.795 1024.37 810.795 1018.44H828.861C829.256 1022.88 830.983 1026.54 834.044 1029.4C837.203 1032.26 841.596 1033.7 847.223 1033.7C853.048 1033.7 857.589 1032.31 860.847 1029.55C864.105 1026.69 865.734 1023.03 865.734 1018.59C865.734 1015.14 864.697 1012.32 862.624 1010.15C860.649 1007.98 858.132 1006.3 855.072 1005.11C852.11 1003.93 847.964 1002.65 842.633 1001.26C835.919 999.488 830.44 997.711 826.195 995.934C822.049 994.058 818.495 991.195 815.533 987.345C812.572 983.495 811.091 978.361 811.091 971.944C811.091 966.021 812.572 960.838 815.533 956.395C818.495 951.953 822.641 948.547 827.972 946.178C833.303 943.808 839.473 942.624 846.483 942.624C856.454 942.624 864.598 945.141 870.917 950.176C877.334 955.112 880.888 961.924 881.579 970.611H862.92C862.624 966.86 860.847 963.651 857.589 960.986C854.331 958.32 850.037 956.988 844.706 956.988C839.868 956.988 835.919 958.222 832.859 960.69C829.799 963.158 828.268 966.712 828.268 971.352C828.268 974.511 829.206 977.127 831.082 979.2C833.056 981.175 835.525 982.754 838.486 983.939C841.448 985.124 845.496 986.407 850.629 987.789C857.441 989.665 862.969 991.541 867.214 993.416C871.558 995.292 875.211 998.204 878.173 1002.15C881.233 1006 882.763 1011.19 882.763 1017.7C882.763 1022.93 881.332 1027.87 878.469 1032.51C875.705 1037.15 871.608 1040.9 866.178 1043.76C860.847 1046.53 854.529 1047.91 847.223 1047.91Z" fill="#8C7D6B"/>
<defs>
<linearGradient id="paint0_linear" x1="617.642" y1="30.6841" x2="617.642" y2="300.05" gradientUnits="userSpaceOnUse">
<stop stop-color="#002B55"/>
<stop offset="1" stop-color="#8A7B68" stop-opacity="0.968254"/>
</linearGradient>
<clipPath id="clip0">
<rect width="588.582" height="587.782" fill="white" transform="translate(305.423)"/>
</clipPath>
</defs>
</svg>
