<svg width="2042" height="588" viewBox="0 0 2042 588" fill="none" xmlns="http://www.w3.org/2000/svg">
<g clip-path="url(#clip0)">
<path d="M539.154 1.29869C555.72 1.29869 572.286 1.29869 588.851 1.29869C588.851 82.5166 588.851 163.734 588.851 244.952C572.286 244.952 555.72 244.952 539.154 244.952C539.154 163.734 539.154 82.5166 539.154 1.29869V1.29869ZM245.301 538.653C245.301 555.029 245.301 571.405 245.301 587.782C163.675 587.782 82.0486 587.782 0.422656 587.782C0.422656 571.405 0.422656 555.029 0.422656 538.653C82.0486 538.653 163.675 538.653 245.301 538.653ZM392.227 342.903C392.227 359.261 392.227 375.619 392.227 391.977C337.421 391.977 282.615 391.977 227.809 391.977C227.809 375.619 227.809 359.261 227.809 342.903C282.615 342.903 337.421 342.903 392.227 342.903ZM588.13 538.806C588.13 555.106 588.13 571.405 588.13 587.705C490.179 587.705 392.227 587.705 294.276 587.705C294.276 571.405 294.276 555.106 294.276 538.806C392.227 538.806 490.179 538.806 588.13 538.806ZM587.255 195.977C587.255 212.302 587.255 228.627 587.255 244.952C522.246 244.952 457.237 244.952 392.227 244.952C392.227 228.627 392.227 212.302 392.227 195.977C457.237 195.977 522.246 195.977 587.255 195.977V195.977ZM589.004 0C589.004 16.35 589.004 32.7 589.004 49.05C392.81 49.05 196.617 49.05 0.422607 49.05C0.422607 32.7 0.422607 16.35 0.422607 0C196.617 0 392.81 0 589.004 0ZM392.227 147.001C408.553 147.001 424.878 147.001 441.203 147.001C441.203 179.651 441.203 212.302 441.203 244.952C424.878 244.952 408.553 244.952 392.227 244.952C392.227 212.302 392.227 179.651 392.227 147.001ZM343.263 294.157C359.595 294.157 375.928 294.157 392.26 294.157C392.26 325.583 392.26 357.009 392.26 388.435C375.928 388.435 359.595 388.435 343.263 388.435C343.263 357.009 343.263 325.583 343.263 294.157ZM196.336 342.903C212.668 342.903 229.001 342.903 245.333 342.903C245.333 424.529 245.333 506.156 245.333 587.782C229.001 587.782 212.668 587.782 196.336 587.782C196.336 506.156 196.336 424.529 196.336 342.903ZM538.891 293.928C555.311 293.928 571.731 293.928 588.152 293.928C588.152 391.879 588.152 489.83 588.152 587.782C571.731 587.782 555.311 587.782 538.891 587.782C538.891 489.83 538.891 391.879 538.891 293.928V293.928ZM0.422611 0.0743542C16.7478 0.0743542 33.073 0.0743542 49.3982 0.0743542C49.3982 195.977 49.3982 391.879 49.3982 587.781C33.073 587.781 16.7478 587.781 0.422611 587.781C0.422611 391.879 0.422611 195.977 0.422611 0.0743542Z" fill="url(#paint0_linear)"/>
</g>
<path d="M1012.63 169.782V143.835H862.196V163.659L877.356 166.575C880.855 167.449 881.438 169.782 881.438 171.822V310.012C881.438 312.053 880.855 314.385 877.356 315.26L862.196 318.175V338H930.708V318.175L915.84 315.26C912.341 314.385 911.758 312.053 911.758 310.012V253.162H1009.13V227.215H911.758V169.782H1012.63ZM1208.41 241.209C1208.41 162.785 1200.54 141.794 1122.7 141.794C1048.65 141.794 1036.69 157.828 1036.69 241.209C1036.69 318.758 1045.44 340.041 1122.99 340.041C1200.25 340.041 1208.41 319.633 1208.41 241.209ZM1177.22 241.209C1177.22 303.89 1175.18 314.385 1122.99 314.385C1071.97 314.385 1067.89 304.473 1067.89 241.209C1067.89 174.446 1073.43 167.158 1122.7 167.158C1176.63 167.158 1177.22 180.277 1177.22 241.209ZM1294.12 253.162H1352.14V283.191L1388.58 338H1431.43V318.175L1420.06 315.551C1413.65 314.094 1410.15 313.219 1406.65 307.971L1375.17 261.617C1373.71 259.576 1372.54 258.118 1372.54 255.786C1372.54 251.121 1376.04 250.538 1380.12 249.955C1391.2 248.789 1402.57 244.999 1410.15 236.544C1418.32 227.506 1422.4 214.97 1422.4 198.352C1422.4 158.12 1407.24 143.835 1362.34 143.835H1244.56V163.659L1259.72 166.575C1263.22 167.449 1263.8 169.782 1263.8 171.822V310.012C1263.8 312.053 1263.22 314.385 1259.72 315.26L1244.56 318.175V338H1313.07V318.175L1298.2 315.26C1294.7 314.385 1294.12 312.053 1294.12 310.012V253.162ZM1390.91 198.644C1390.91 207.973 1390.62 215.553 1385.37 220.801C1380.71 224.883 1371.67 227.798 1352.14 227.798H1294.12V169.49H1352.14C1371.67 169.49 1380.71 172.114 1385.37 176.487C1390.62 181.735 1390.91 189.606 1390.91 198.644ZM1645.68 282.316C1645.68 267.739 1641.89 258.701 1641.89 258.701L1611.28 241.792C1609.53 240.917 1608.66 240.043 1608.66 238.293C1608.66 236.253 1609.53 235.67 1611.28 234.795L1639.27 219.343C1639.27 219.343 1641.6 210.306 1641.6 198.061C1641.6 160.161 1624.69 143.835 1586.21 143.835H1464.64V163.659L1479.8 166.575C1483.29 167.449 1483.88 169.782 1483.88 171.822V310.012C1483.88 312.053 1483.29 314.385 1479.8 315.26L1464.64 318.175V338H1589.71C1628.77 338 1645.68 320.216 1645.68 282.316ZM1610.41 198.352C1610.41 222.842 1598.74 227.506 1575.13 227.506H1514.2V169.49H1576C1599.33 169.49 1610.41 173.572 1610.41 198.352ZM1614.2 282.316C1614.2 307.971 1601.95 312.345 1577.46 312.345H1514.2V252.287H1577.46C1601.95 252.287 1614.2 256.66 1614.2 282.316ZM1837 338V312.053H1730.01V251.121H1833.5V225.757H1730.01V169.782H1837V143.835H1680.44V163.659L1695.6 166.575C1699.1 167.449 1699.69 169.782 1699.69 171.822V310.012C1699.69 312.053 1699.1 314.385 1695.6 315.26L1680.44 318.175V338H1837ZM1947.9 340.041C1993.96 340.041 2023.7 332.169 2023.7 279.401C2023.7 224.883 1988.13 226.34 1945.57 224.299C1918.75 223.133 1898.92 224.591 1898.92 195.729C1898.92 166.575 1926.91 167.741 1949.65 167.741C1975.01 167.741 2009.12 174.446 2009.12 174.446L2013.2 149.082C2013.2 149.082 1980.84 141.794 1944.69 141.794C1893.09 141.794 1868.89 154.038 1868.89 199.519C1868.89 252.287 1903.88 251.413 1947.61 254.328C1979.39 256.369 1993.09 253.745 1993.09 284.065C1993.09 313.802 1966.85 313.802 1944.4 313.802C1914.08 313.802 1876.47 306.514 1876.47 306.514L1872.97 332.169C1872.97 332.169 1907.38 340.041 1947.9 340.041Z" fill="#002C57"/>
<path d="M1238.64 397.345V500.264H1221.76V455.246H1173.34V500.264H1156.45V397.345H1173.34V441.474H1221.76V397.345H1238.64ZM1325.58 501.3C1316 501.3 1307.17 499.079 1299.07 494.636C1291.07 490.095 1284.71 483.826 1279.97 475.83C1275.33 467.735 1273.01 458.652 1273.01 448.582C1273.01 438.513 1275.33 429.48 1279.97 421.483C1284.71 413.487 1291.07 407.267 1299.07 402.825C1307.17 398.283 1316 396.013 1325.58 396.013C1335.25 396.013 1344.09 398.283 1352.08 402.825C1360.18 407.267 1366.55 413.487 1371.19 421.483C1375.83 429.48 1378.15 438.513 1378.15 448.582C1378.15 458.652 1375.83 467.735 1371.19 475.83C1366.55 483.826 1360.18 490.095 1352.08 494.636C1344.09 499.079 1335.25 501.3 1325.58 501.3ZM1325.58 486.64C1332.39 486.64 1338.46 485.11 1343.79 482.049C1349.12 478.89 1353.27 474.448 1356.23 468.722C1359.29 462.897 1360.82 456.184 1360.82 448.582C1360.82 440.981 1359.29 434.317 1356.23 428.591C1353.27 422.865 1349.12 418.472 1343.79 415.412C1338.46 412.351 1332.39 410.821 1325.58 410.821C1318.77 410.821 1312.69 412.351 1307.36 415.412C1302.03 418.472 1297.84 422.865 1294.78 428.591C1291.81 434.317 1290.33 440.981 1290.33 448.582C1290.33 456.184 1291.81 462.897 1294.78 468.722C1297.84 474.448 1302.03 478.89 1307.36 482.049C1312.69 485.11 1318.77 486.64 1325.58 486.64ZM1520.93 397.345V500.264H1504.04V429.776L1472.65 500.264H1460.95L1429.41 429.776V500.264H1412.53V397.345H1430.74L1466.88 478.051L1502.86 397.345H1520.93ZM1577.77 410.969V441.178H1613.31V454.95H1577.77V486.492H1617.75V500.264H1560.88V397.197H1617.75V410.969H1577.77ZM1690.22 501.3C1683.31 501.3 1677.09 500.115 1671.56 497.746C1666.04 495.278 1661.69 491.823 1658.53 487.38C1655.37 482.938 1653.79 477.755 1653.79 471.832H1671.86C1672.26 476.274 1673.98 479.927 1677.04 482.79C1680.2 485.653 1684.6 487.084 1690.22 487.084C1696.05 487.084 1700.59 485.702 1703.85 482.938C1707.1 480.075 1708.73 476.422 1708.73 471.98C1708.73 468.524 1707.7 465.711 1705.62 463.539C1703.65 461.367 1701.13 459.689 1698.07 458.504C1695.11 457.319 1690.96 456.036 1685.63 454.654C1678.92 452.877 1673.44 451.1 1669.2 449.323C1665.05 447.447 1661.49 444.584 1658.53 440.734C1655.57 436.884 1654.09 431.75 1654.09 425.333C1654.09 419.41 1655.57 414.227 1658.53 409.784C1661.49 405.342 1665.64 401.936 1670.97 399.567C1676.3 397.197 1682.47 396.013 1689.48 396.013C1699.45 396.013 1707.6 398.53 1713.92 403.565C1720.33 408.501 1723.89 415.313 1724.58 424H1705.92C1705.62 420.249 1703.85 417.041 1700.59 414.375C1697.33 411.71 1693.04 410.377 1687.71 410.377C1682.87 410.377 1678.92 411.611 1675.86 414.079C1672.8 416.547 1671.27 420.101 1671.27 424.741C1671.27 427.9 1672.21 430.516 1674.08 432.589C1676.06 434.564 1678.52 436.143 1681.49 437.328C1684.45 438.513 1688.5 439.796 1693.63 441.178C1700.44 443.054 1705.97 444.93 1710.21 446.805C1714.56 448.681 1718.21 451.593 1721.17 455.542C1724.23 459.392 1725.76 464.575 1725.76 471.091C1725.76 476.323 1724.33 481.26 1721.47 485.899C1718.7 490.539 1714.61 494.291 1709.18 497.154C1703.85 499.918 1697.53 501.3 1690.22 501.3Z" fill="#8C7D6B"/>
<defs>
<linearGradient id="paint0_linear" x1="312.642" y1="30.6841" x2="312.642" y2="300.05" gradientUnits="userSpaceOnUse">
<stop stop-color="#002B55"/>
<stop offset="1" stop-color="#8A7B68" stop-opacity="0.968254"/>
</linearGradient>
<clipPath id="clip0">
<rect width="588.582" height="587.782" fill="white" transform="translate(0.422607)"/>
</clipPath>
</defs>
</svg>
